<?xml version="1.0" encoding="UTF-8"?>
<svg width="19px" height="9px" viewBox="0 0 19 9" version="1.1" xmlns="http://www.w3.org/2000/svg" xmlns:xlink="http://www.w3.org/1999/xlink">
    <title>API</title>
    <g id="Custom" stroke="none" stroke-width="1" fill="none" fill-rule="evenodd">
        <g id="Artboard" transform="translate(-106, -119)" fill="#C5C5C5" fill-rule="nonzero">
            <g id="API" transform="translate(106, 119)">
                <path d="M8.466,8.676 L7.218,8.676 C7.078,8.676 6.963,8.641 6.873,8.571 C6.783,8.501 6.718,8.414 6.678,8.31 L6.03,6.54 L2.436,6.54 L1.788,8.31 C1.756,8.402 1.693,8.486 1.599,8.562 C1.505,8.638 1.39,8.676 1.254,8.676 L0,8.676 L3.408,0 L5.058,0 L8.466,8.676 Z M2.85,5.4 L5.616,5.4 L4.56,2.514 C4.512,2.386 4.459,2.235 4.401,2.061 C4.343,1.887 4.286,1.698 4.23,1.494 C4.174,1.698 4.119,1.888 4.065,2.064 C4.011,2.24 3.958,2.394 3.906,2.526 L2.85,5.4 Z" id="Shape"></path>
                <path d="M11.028,5.622 L11.028,8.676 L9.414,8.676 L9.414,0 L12.24,0 C12.82,0 13.322,0.068 13.746,0.204 C14.17,0.34 14.52,0.53 14.796,0.774 C15.072,1.018 15.276,1.31 15.408,1.65 C15.54,1.99 15.606,2.362 15.606,2.766 C15.606,3.186 15.536,3.571 15.396,3.921 C15.256,4.271 15.046,4.572 14.766,4.824 C14.486,5.076 14.136,5.272 13.716,5.412 C13.296,5.552 12.804,5.622 12.24,5.622 L11.028,5.622 Z M11.028,4.362 L12.24,4.362 C12.536,4.362 12.794,4.325 13.014,4.251 C13.234,4.177 13.416,4.071 13.56,3.933 C13.704,3.795 13.812,3.627 13.884,3.429 C13.956,3.231 13.992,3.01 13.992,2.766 C13.992,2.534 13.956,2.324 13.884,2.136 C13.812,1.948 13.704,1.788 13.56,1.656 C13.416,1.524 13.234,1.423 13.014,1.353 C12.794,1.283 12.536,1.248 12.24,1.248 L11.028,1.248 L11.028,4.362 Z" id="Shape"></path>
                <polygon id="Path" points="18.678 8.676 17.058 8.676 17.058 0 18.678 0"></polygon>
            </g>
        </g>
    </g>
</svg>