<svg width="16px" height="16px" viewBox="0 0 16 16" version="1.1" xmlns="http://www.w3.org/2000/svg" xmlns:xlink="http://www.w3.org/1999/xlink" fill="currentColor"><path d="M7.38461538,5.95174324 L0,12.4878209 L2.70769231,15.183953 L9.27179487,7.83086557 C8.83418803,7.39512706 8.61538462,7.1772578 8.61538462,7.1772578 C8.61538462,7.1772578 6.64615385,9.38318402 2.70769231,13.7950364 L1.39487179,12.4878209 L8.04102564,6.605351 L7.38461538,5.95174324 Z"/><path d="M8.86153846,0.967984006 C9.73675214,0.967984006 10.6666667,1.40372252 11.6512821,2.27519954 L14.1128205,4.72622867 L13.7025641,5.13473353 L15.0974359,6.605351 L15.3435897,6.36024809 L16,7.01385586 L12.8820513,10.1184928 L12.225641,9.54658596 L12.6358974,9.05638013 L11.1589744,7.58576265 L10.7487179,7.99426751 L7.63076923,4.97133158 L7.63076923,3.58241508 L5.00512821,2.27519954 C5.99946328,1.6579027 6.71057439,1.2766315 7.13846154,1.13138595 C7.78294788,0.912616175 8.42302818,0.967984006 8.86153846,0.967984006 Z M9.27179487,1.94839566 C8.93389675,1.87856527 8.33665825,1.78367733 7.79487179,1.86669469 C7.58276279,1.89919592 7.28190809,2.00813055 6.89230769,2.19349857 L8.53333333,3.01050828 L8.53333333,4.56282673 L10.7487179,6.76875294 L11.1589744,6.36024809 L13.1282051,8.32107139 L14.3589744,7.09555683 L12.3897436,5.13473353 L12.8820513,4.72622867 L11.2410256,3.09220925 C10.7220171,2.62378283 10.3391111,2.3242126 10.0923077,2.19349857 C9.82562003,2.05225327 9.49637299,1.99480721 9.27179487,1.94839566 Z"/></svg>