<svg width="16px" height="16px" viewBox="0 0 16 16" version="1.1" xmlns="http://www.w3.org/2000/svg" xmlns:xlink="http://www.w3.org/1999/xlink" fill="currentColor"><path d="M5.81195943,13.5947896 C3.57556029,14.1735278 1.23266593,12.9726461 1.25396497,10.5419457 C1.09777202,6.08566175 7.77857071,0.283811506 11.8111889,3.36559231 C12.0738771,3.11239435 12.4359607,2.75068299 12.6986489,2.49748504 C8.36074449,-1.19197085 1.40305825,4.03114121 0.281308836,8.5742359 C-0.634549861,11.3883503 0.707289629,14.6437526 3.99444139,14.9041848 C6.73491784,15.1429142 9.36889906,13.7105373 11.2219155,11.8296382 L10.3060568,10.9832336 C9.08491186,12.2202865 7.54428132,13.225844 5.81195943,13.6020239 L5.81195943,13.5947896 Z" id="Path" fill-rule="nonzero"/><path d="M13.8700961,4.81967199 L12.7341473,5.93374298 C12.7341473,6.11459866 12.7128482,6.28822011 12.6915492,6.46907579 L13.9410929,6.62822879 C14.0191894,6.01331948 14.026289,5.39117594 13.9055944,4.79073507 L13.8700961,4.82690621 L13.8700961,4.81967199 Z" id="Path" fill-rule="nonzero"/><path d="M11.4136068,9.62319889 L12.4643594,10.3032162 C12.8335428,9.76064918 13.1530284,9.1746768 13.4015171,8.56700167 L13.4015171,8.56700167 C13.4015171,8.56700167 13.4015171,8.56700167 13.4015171,8.56700167 L12.2371697,8.11124536 C12.0170796,8.639344 11.7401921,9.15297412 11.4136068,9.63043311 L11.4136068,9.62319889 Z" id="Path" fill-rule="nonzero"/><path d="M4.40622283,6.20864361 L3.29867277,7.28654347 L6.98340661,10.8891887 L16,2.08513409 L14.8924499,1 C12.8903402,2.95324136 9.02811437,6.72227375 6.98340661,8.71892049 L4.40622283,6.20140938 L4.40622283,6.20864361 Z" id="Path" fill-rule="nonzero"/></svg>