<svg width="16px" height="16px" viewBox="0 0 16 16" version="1.1" xmlns="http://www.w3.org/2000/svg" xmlns:xlink="http://www.w3.org/1999/xlink" fill="currentColor"><path d="M11.1777238,2.92807625 L8.43546612,0.184570312 C8.32345656,0.0616464168 8.16268974,0 8.00060548,0 C7.83852101,0 7.67775439,0.0616464168 7.55388508,0.184965804 L4.81202273,2.92807625 C4.56546983,3.17474118 4.56546983,3.5745998 4.81202273,3.82113276 L7.55428039,6.5646387 C7.67775439,6.68803695 7.83852101,6.75 8.00060548,6.75 C8.16216292,6.75 8.32371997,6.68834031 8.44693056,6.5650342 L11.1891882,3.82152826 C11.4360047,3.57539079 11.4360047,3.17460942 11.1777238,2.92807625 Z M8.0107375,5.6 L5.75640225,3.3510818 L7.99958119,1.1 L10.2535915,3.3489182 L8.0107375,5.6 Z"/><path d="M11.1777238,12.1780763 L8.43546612,9.43457031 C8.32345656,9.31164642 8.16268974,9.25 8.00060548,9.25 C7.83852101,9.25 7.67775439,9.31164642 7.55388508,9.4349658 L4.81202273,12.1780763 C4.56546983,12.4247412 4.56546983,12.8245998 4.81202273,13.0711328 L7.55428039,15.8146387 C7.67775439,15.9380369 7.83852101,16 8.00060548,16 C8.16216292,16 8.32371997,15.9383403 8.44693056,15.8150342 L11.1891882,13.0715283 C11.4360047,12.8253908 11.4360047,12.4246094 11.1777238,12.1780763 Z M8.0107375,14.85 L5.75640225,12.6010818 L7.99958119,10.35 L10.2535915,12.5989182 L8.0107375,14.85 Z"/><path d="M15.8048318,7.42807625 L13.0625742,4.68457031 C12.9505646,4.56164642 12.7897978,4.5 12.6277135,4.5 C12.4656291,4.5 12.3048624,4.56164642 12.1809931,4.6849658 L9.43913079,7.42807625 C9.19257789,7.67474118 9.19257789,8.0745998 9.43913079,8.32113276 L12.1813884,11.0646387 C12.3048624,11.1880369 12.4656291,11.25 12.6277135,11.25 C12.789271,11.25 12.950828,11.1883403 13.0740386,11.0650342 L15.8162963,8.32152826 C16.0631128,8.07539079 16.0631128,7.67460942 15.8048318,7.42807625 Z M12.6378456,10.1 L10.3835103,7.8510818 L12.6266892,5.6 L14.8806996,7.8489182 L12.6378456,10.1 Z"/><path d="M6.55061572,7.42807625 L3.80835806,4.68457031 C3.6963485,4.56164642 3.53558168,4.5 3.37349742,4.5 C3.21141296,4.5 3.05064633,4.56164642 2.92677702,4.6849658 L0.184914672,7.42807625 C-0.061638224,7.67474118 -0.061638224,8.0745998 0.184914672,8.32113276 L2.92717233,11.0646387 C3.05064633,11.1880369 3.21141296,11.25 3.37349742,11.25 C3.53505487,11.25 3.69661191,11.1883403 3.81982251,11.0650342 L6.56208017,8.32152826 C6.80889667,8.07539079 6.80889667,7.67460942 6.55061572,7.42807625 Z M3.38362944,10.1 L1.12929419,7.8510818 L3.37247313,5.6 L5.62648345,7.8489182 L3.38362944,10.1 Z"/></svg>