<?xml version="1.0" encoding="UTF-8"?><svg width="16px" height="16px" viewBox="0 0 16 16" version="1.1" xmlns="http://www.w3.org/2000/svg" xmlns:xlink="http://www.w3.org/1999/xlink" fill="currentColor"><title>custom/component-class</title><g id="Custom" stroke="none" stroke-width="1" fill-rule="evenodd"><g id="Icons---Dark" transform="translate(-88, -652)"><g id="Custom" transform="translate(64, 606)"><g id="custom/component-class" transform="translate(24, 46)"><g id="Group-2" transform="translate(7.8664, 7.8605) rotate(-315) translate(-7.8664, -7.8605)translate(2.3537, 2.2569)"><polygon id="Combined-Shape" opacity="0.604701451" transform="translate(5.2028, 6) rotate(-360) translate(-5.2028, -6)" points="3.26538026e-14 1.79289322 0.991476318 0.792893219 0.991476318 10.2071068 10.4056899 10.2071068 9.40563781 11.2071588 2.18862123e-14 11.2071068"/><path d="M11.025565,-1.63826353e-14 L11.025565,9 L2.03408871,9 C2.03074609,7.38600319 2.0283866,6.00945245 2.02701022,4.87034778 L2.02713061,1.30045149 C2.02852223,0.726908332 2.0308416,0.293424501 2.03408871,-1.63826353e-14 L11.025565,-1.63826353e-14 Z M10.025565,1 L3.02556503,1 L3.02556503,8 L10.025565,8 L10.025565,1 Z" id="Combined-Shape" transform="translate(6.5259, 4.5) rotate(-360) translate(-6.5259, -4.5)"/></g></g></g></g></g></svg>