<?xml version="1.0" encoding="UTF-8"?><svg width="16px" height="16px" viewBox="0 0 16 16" version="1.1" xmlns="http://www.w3.org/2000/svg" xmlns:xlink="http://www.w3.org/1999/xlink" fill="currentColor"><title>custom/files</title><g id="Custom" stroke="none" stroke-width="1" fill-rule="evenodd"><g id="Icons---Dark" transform="translate(-109, -652)"><g id="Custom" transform="translate(64, 606)"><g id="custom/files" transform="translate(45, 46)"><path d="M12,3 L12,1.41333333 L13.5987251,3 L12,3 Z M13.997754,11 L6,11 L6,1 L11,1 L11,3.99972877 L13.997754,3.99972877 L13.997754,11 Z M12,0 L6,0 L5,1 L4.95441324,11 L5.95441324,12 L13.9494305,12 L15,11 L15,3 L12,0 Z" id="Vector"/><polygon id="Vector" opacity="0.600027902" points="3 3 2 4 1.95441324 14 2.95441324 15 10.9494305 15 12 14 3 14"/></g></g></g></g></svg>