<?xml version="1.0" encoding="UTF-8"?>
<svg width="16px" height="16px" viewBox="0 0 16 16" version="1.1" xmlns="http://www.w3.org/2000/svg" xmlns:xlink="http://www.w3.org/1999/xlink">
    <title>custom/layer</title>
    <g id="Custom" stroke="none" stroke-width="1" fill="none" fill-rule="evenodd">
        <g id="Icons---Dark" transform="translate(-163, -651)">
            <g id="Custom" transform="translate(64, 606)">
                <g id="custom/layer" transform="translate(99, 45)">
                    <path d="M8.00000021,6.98541667 L2.18888934,4.46666667 L8.00000021,1.94791667 L13.8111115,4.46666667 L8.00000021,6.98541667 Z M14.9055549,3.99270833 L8,1 L1.09444467,3.99270833 L0,4.46666667 L1.09444467,4.940625 L8,7.93333333 L14.9055549,4.940625 L16,4.46666667 L14.9055549,3.99270833 Z M3.37153367,6.88906938 L2.90555565,6.67395833 L1.09444467,7.459375 L0,7.93333333 L1.09444467,8.40729167 L8,11.4 L14.9055549,8.40729167 L16,7.93333333 L14.9055549,7.459375 L13.0944435,6.67395833 L12.6583099,6.86222244 L15.085207,7.93333333 L8,10.9011342 L1.09444467,7.93333333 L3.37153367,6.88906938 Z M3.37153367,10.515111 L2.90555565,10.3 L1.09444467,11.0854167 L0,11.559375 L1.09444467,12.0333333 L8,15.0260417 L14.9055549,12.0333333 L16,11.559375 L14.9055549,11.0854167 L13.0944435,10.3 L12.6583099,10.4882641 L15.085207,11.559375 L8,14.5271759 L1.09444467,11.559375 L3.37153367,10.515111 Z" id="Shape" fill-opacity="0.8" fill="#FFFFFF" fill-rule="nonzero"></path>
                </g>
            </g>
        </g>
    </g>
</svg>