<?xml version="1.0" encoding="UTF-8"?><svg width="16px" height="16px" viewBox="0 0 16 16" version="1.1" xmlns="http://www.w3.org/2000/svg" xmlns:xlink="http://www.w3.org/1999/xlink" fill="currentColor"><title>custom/layers</title><g id="Custom" stroke="none" stroke-width="1" fill-rule="evenodd"><g id="Icons---Dark" transform="translate(-134, -651)"><g id="Custom" transform="translate(64, 606)"><g id="custom/layers" transform="translate(70, 45)"><path d="M8.00000021,6.98541667 L2.18888934,4.46666667 L8.00000021,1.94791667 L13.8111115,4.46666667 L8.00000021,6.98541667 Z M14.9055549,3.99270833 L8,1 L1.09444467,3.99270833 L0,4.46666667 L1.09444467,4.940625 L8,7.93333333 L14.9055549,4.940625 L16,4.46666667 L14.9055549,3.99270833 Z M4,7.14791667 L2.90555565,6.67395833 L1.09444467,7.459375 L0,7.93333333 L1.09444467,8.40729167 L8,11.4 L14.9055549,8.40729167 L16,7.93333333 L14.9055549,7.459375 L13.0944435,6.67395833 L12,7.14791667 L13.8111115,7.93333333 L8,10.4520833 L2.18888934,7.93333333 L4,7.14791667 Z M2.90555565,10.140625 L1.09444467,10.9260417 L0,11.4 L1.09444467,11.8739583 L8,14.8666667 L14.9055549,11.8739583 L16,11.4 L14.9055549,10.9260417 L13.0944435,10.140625 L12,10.6145833 L13.8111115,11.4 L8,13.91875 L2.18888934,11.4 L4,10.6145833 L2.90555565,10.140625 Z" id="Shape" fill-opacity="0.8" fill-rule="nonzero"/></g></g></g></g></svg>