<?xml version="1.0" encoding="UTF-8"?>
<svg width="17px" height="18px" viewBox="0 0 17 18" version="1.1" xmlns="http://www.w3.org/2000/svg" xmlns:xlink="http://www.w3.org/1999/xlink">
    <title>generator</title>
    <g id="Custom" stroke="none" stroke-width="1" fill="none" fill-rule="evenodd">
        <g id="Mock-up" transform="translate(-334, -72)">
            <g id="generator" transform="translate(334, 72.8)">
                <path d="M9.2,3.5 L9.2,3 C9.1,3 8.7,1.3 8.7,1.3 L6.8,1.3 L6.4,3 L6.4,3.5 C6.3,3.5 5.8,3.7 5.8,3.7 C5.4,3.9 5,4.1 4.7,4.4 L4.3,4.7 L3.8,4.5 L2.2,4 L1.3,5.6 L2.6,6.7 L3,7.1 L3,7.6 C3,7.8 2.9,8 2.9,8.3 C2.9,8.6 2.9,8.7 2.9,9 L2.9,9.5 C2.9,9.5 2.6,9.9 2.6,9.9 L1.3,11 L2.2,12.6 L3.8,12.1 L4.3,11.9 L4.7,12.2 C5.1,12.5 5.4,12.7 5.8,12.9 L6.3,13.1 L6.3,13.6 C6.4,13.6 6.8,15.3 6.8,15.3 L8.7,15.3 L9.1,13.6 L9.1,13.1 C9.2,13.1 9.7,12.9 9.7,12.9 C10.1,12.7 10.5,12.5 10.8,12.2 L11.2,11.9 L11.7,12.1 L13.3,12.6 L14.2,11 L13.4,10.2 L12.9,10.7 L8.7,4.6 L10.2,3.9 C10,3.8 9.8,3.7 9.6,3.6 L9.1,3.4 L9.2,3.5 Z M9.2,5.9 C10.1,6.4 10.6,7.3 10.6,8.3 C10.6,9.3 10.1,10.2 9.2,10.7 C8.3,11.2 7.3,11.2 6.4,10.7 C5.5,10.2 5,9.3 5,8.3 C5,7.3 5.5,6.4 6.4,5.9 C7.3,5.4 8.3,5.4 9.2,5.9 L9.2,5.9 Z" id="Shape"></path>
                <path d="M6.9,6.8 C6.4,7.1 6,7.7 6,8.3 C6,8.9 6.3,9.5 6.9,9.8 C7.4,10.1 8.1,10.1 8.7,9.8 C9.2,9.5 9.6,8.9 9.6,8.3 C9.6,7.7 9.3,7.1 8.7,6.8 C8.2,6.5 7.5,6.5 6.9,6.8 L6.9,6.8 Z" id="Path"></path>
                <path d="M14.3,11 L13.4,12.6 L11.8,12.1 L11.3,11.9 L10.9,12.2 C10.5,12.5 10.2,12.7 9.8,12.9 L9.3,13.1 L9.3,13.6 C9.2,13.6 8.8,15.3 8.8,15.3 L6.9,15.3 L6.5,13.6 L6.5,13.1 C6.4,13.1 5.9,12.9 5.9,12.9 C5.5,12.7 5.1,12.5 4.8,12.2 L4.4,11.9 L3.9,12.1 L2.3,12.6 L1.4,11 L2.7,9.9 L3.1,9.5 L3.1,9 C3.1,8.8 3,8.6 3,8.3 C3,8 3,7.9 3,7.6 L3,7.1 C3,7.1 2.7,6.7 2.7,6.7 L1.4,5.6 L2.3,4 L3.9,4.5 L4.4,4.7 L4.8,4.4 C5.1,4.1 5.5,3.9 5.9,3.7 L6.4,3.5 L6.4,3 C6.5,3 6.9,1.3 6.9,1.3 L8.8,1.3 L9.2,3 L9.2,3.5 C9.3,3.5 9.8,3.7 9.8,3.7 C10,3.7 10.2,3.9 10.4,4 L11.5,3.5 C11.1,3.2 10.6,2.9 10.2,2.7 L9.7,0.2 L6.2,0.2 L5.7,2.7 C5.2,2.9 4.7,3.2 4.3,3.5 L1.9,2.7 L0,5.8 L1.9,7.5 C1.9,7.8 1.9,8 1.9,8.3 C1.9,8.6 1.9,8.8 1.9,9.1 L0,10.8 L1.8,13.8 L4.2,13 C4.6,13.3 5.1,13.6 5.6,13.8 L6.1,16.3 L9.6,16.3 L10.1,13.8 C10.6,13.6 11.1,13.3 11.5,13 L13.9,13.8 L15.7,10.8 L14.3,9.5 L13.6,10.2 L14.4,11 L14.3,11 Z" id="Path" fill="#C5C5C5" fill-rule="nonzero"></path>
                <path d="M6.4,5.9 C5.5,6.4 5,7.3 5,8.3 C5,9.3 5.5,10.2 6.4,10.7 C7.3,11.2 8.3,11.2 9.2,10.7 C10.1,10.2 10.6,9.3 10.6,8.3 C10.6,7.3 10.1,6.4 9.2,5.9 C8.3,5.4 7.3,5.4 6.4,5.9 Z M9.6,8.3 C9.6,8.9 9.3,9.5 8.7,9.8 C8.2,10.1 7.5,10.1 6.9,9.8 C6.4,9.5 6,8.9 6,8.3 C6,7.7 6.3,7.1 6.9,6.8 C7.4,6.5 8.1,6.5 8.7,6.8 C9.2,7.1 9.6,7.7 9.6,8.3 Z" id="Shape" fill="#C5C5C5" fill-rule="nonzero"></path>
                <polygon id="Path" fill="#C5C5C5" fill-rule="nonzero" points="17 4.49438202 14.6 3.82022472 15.68 0 11 5.50561798 13.4 6.17977528 12.32 10"></polygon>
            </g>
        </g>
    </g>
</svg>