<?xml version="1.0" encoding="UTF-8"?>
<svg width="24px" height="31px" viewBox="0 0 24 31" version="1.1" xmlns="http://www.w3.org/2000/svg" xmlns:xlink="http://www.w3.org/1999/xlink">
    <title>vscode extension icons-4 2</title>
    <g id="Icon-development" stroke="none" stroke-width="1" fill="none" fill-rule="evenodd" fill-opacity="0.8">
        <g id="cmsis" transform="translate(-12.000000, -268.000000)" fill="black" fill-rule="nonzero">
            <g id="Group" transform="translate(12.000000, 268.040707)">
                <path d="M9.35469168,18.1050101 C6.13986791,18.9369462 2.77195728,17.2106787 2.80257465,13.716547 C2.57804728,7.31063877 12.1816954,-1.02952096 17.978584,3.40053894 C18.3561983,3.03656688 18.8766935,2.5166068 19.2543078,2.15263474 C13.0185702,-3.1509581 3.01689624,4.35726549 1.40438145,10.8879641 C0.087834573,14.9332536 2.01672884,19.6128943 6.7420095,19.9872656 C10.6814444,20.3304392 14.4677924,18.2713973 17.1315035,15.5676049 L15.8149566,14.3508983 C14.0595608,16.1291618 11.8449044,17.5746508 9.35469168,18.1154093 L9.35469168,18.1050101 Z" id="Path"></path>
                <path d="M20.9382631,5.49077848 L19.3053367,7.09225553 C19.3053367,7.35223557 19.2747193,7.60181641 19.244102,7.86179645 L21.040321,8.09057889 C21.1525847,7.20664675 21.1627904,6.31231541 20.989292,5.44918167 L20.9382631,5.50117768 L20.9382631,5.49077848 Z" id="Path"></path>
                <path d="M17.4070598,12.3958484 L18.9175167,13.3733733 C19.4482178,12.5934332 19.9074783,11.7510979 20.2646809,10.8775649 L20.2646809,10.8775649 C20.2646809,10.8775649 20.2646809,10.8775649 20.2646809,10.8775649 L18.5909314,10.2224152 C18.2745519,10.981557 17.8765261,11.7199003 17.4070598,12.4062476 L17.4070598,12.3958484 Z" id="Path"></path>
                <path d="M7.33394531,7.48742519 L5.7418421,9.03690624 L11.038647,14.2157087 L24,1.55988025 L22.4078968,0 C19.5298641,2.80778445 13.9779144,8.22576851 11.038647,11.0959482 L7.33394531,7.47702599 L7.33394531,7.48742519 Z" id="Path"></path>
                <path d="M4.48389406,28.6075949 C4.43235505,28.6075949 4.3722262,28.6329114 4.32068719,28.6835443 C4.226199,28.7679325 4.12312097,28.8438819 4.02863278,28.9029536 C3.9341446,28.9620253 3.82247674,29.0126582 3.71939871,29.0548523 C3.60773085,29.0970464 3.48747316,29.1223629 3.35862563,29.1392405 C3.2297781,29.1561181 3.07516106,29.164557 2.91195419,29.164557 C2.63707946,29.164557 2.38797423,29.1139241 2.15604868,29.021097 C1.92412312,28.9198312 1.71796707,28.7848101 1.53758053,28.5991561 C1.35719399,28.4135021 1.22834646,28.185654 1.12526843,27.9156118 C1.02219041,27.6455696 0.979241231,27.3417722 0.979241231,26.9957806 C0.979241231,26.649789 1.03078024,26.3459916 1.12526843,26.0843882 C1.21975662,25.814346 1.35719399,25.5864979 1.52899069,25.4008439 C1.7007874,25.2151899 1.90694345,25.07173 2.14745884,24.9704641 C2.38797423,24.8691983 2.64566929,24.8270042 2.92913386,24.8270042 C3.17823908,24.8270042 3.38439513,24.8523207 3.547602,24.9029536 C3.71080888,24.9535865 3.84824624,25.0126582 3.9599141,25.07173 C4.07158196,25.1308017 4.15748031,25.1898734 4.226199,25.2405063 C4.29491768,25.2911392 4.36363636,25.3164557 4.41517538,25.3164557 C4.46671439,25.3164557 4.50966356,25.3080169 4.54402291,25.2827004 C4.57838225,25.257384 4.60415175,25.2320675 4.62133142,25.2067511 L4.93915533,24.7679325 C4.69863994,24.5400844 4.40658554,24.3544304 4.0801718,24.2194093 C3.75375805,24.0843882 3.36721546,24.0168776 2.93772369,24.0168776 C2.50823193,24.0168776 2.10450966,24.092827 1.74373658,24.2362869 C1.38296349,24.3797468 1.07372942,24.5907173 0.816034359,24.8523207 C0.558339298,25.1139241 0.360773085,25.4345992 0.214745884,25.7974684 C0.0687186829,26.1603376 0,26.5654008 0,27.0042194 C0,27.443038 0.0687186829,27.8481013 0.197566213,28.2109705 C0.335003579,28.5738397 0.523979957,28.8945148 0.773085183,29.1561181 C1.02219041,29.4177215 1.32283465,29.628692 1.6750179,29.7721519 C2.02720115,29.9240506 2.42233357,29.9915612 2.86041518,29.9915612 C3.35003579,29.9915612 3.77952756,29.9156118 4.13171081,29.7552743 C4.48389406,29.6033755 4.7845383,29.3755274 5.02505369,29.0886076 L4.6385111,28.6751055 C4.6385111,28.6751055 4.55261274,28.6160338 4.50107373,28.6160338 L4.48389406,28.6075949 Z" id="Path"></path>
                <path d="M11.2784538,24.092827 C11.2355047,24.1097046 11.1925555,24.1518987 11.1496063,24.2278481 L9.25984252,27.6202532 C9.21689334,27.6962025 9.182534,27.7805907 9.13958482,27.8649789 C9.09663565,27.9493671 9.07086614,28.0337553 9.0365068,28.1265823 C9.00214746,28.0421941 8.96778812,27.9578059 8.93342878,27.8734177 C8.89906943,27.7890295 8.85612026,27.7130802 8.81317108,27.628692 L6.8976378,24.2278481 C6.86327845,24.1518987 6.82032928,24.1097046 6.76879026,24.092827 C6.72584109,24.0759494 6.65712241,24.0675105 6.57122405,24.0675105 L5.84108805,24.0675105 L5.84108805,29.9156118 L6.70007158,29.9156118 L6.70007158,25.907173 C6.70007158,25.8396624 6.70007158,25.7637131 6.70007158,25.6877637 C6.70007158,25.6118143 6.69148175,25.5274262 6.68289191,25.4514768 L8.63278454,28.92827 C8.70150322,29.07173 8.82176092,29.1476793 8.97637795,29.1476793 L9.11381532,29.1476793 C9.26843236,29.1476793 9.38010021,29.0801688 9.45740873,28.92827 L11.3815319,25.4599156 C11.3815319,25.535865 11.3643522,25.6202532 11.3643522,25.6962025 C11.3643522,25.7721519 11.3643522,25.8481013 11.3643522,25.907173 L11.3643522,29.9156118 L12.2233357,29.9156118 L12.2233357,24.0675105 L11.4931997,24.0675105 C11.4073014,24.0675105 11.3385827,24.0675105 11.2956335,24.092827 L11.2784538,24.092827 Z" id="Path"></path>
                <path d="M16.6642806,27.0632911 C16.5354331,26.9451477 16.380816,26.8523207 16.2176092,26.7763713 C16.0458125,26.7004219 15.8740157,26.6329114 15.702219,26.5738397 C15.5304223,26.5147679 15.3586256,26.4556962 15.1868289,26.4050633 C15.0150322,26.3544304 14.869005,26.2869198 14.7401575,26.2194093 C14.6113099,26.1518987 14.4996421,26.0675105 14.4223336,25.9662447 C14.3450251,25.8649789 14.3020759,25.7468354 14.3020759,25.5949367 C14.3020759,25.4767932 14.3192555,25.3670886 14.3622047,25.2742616 C14.4051539,25.1814346 14.4738726,25.0886076 14.5511811,25.0126582 C14.6370795,24.9367089 14.7401575,24.8860759 14.869005,24.8438819 C14.9978525,24.8016878 15.1438797,24.7848101 15.3070866,24.7848101 C15.4874732,24.7848101 15.6420902,24.8101266 15.7709377,24.8523207 C15.8997853,24.8945148 16.0114531,24.9451477 16.1059413,24.9957806 C16.2004295,25.0464135 16.277738,25.0970464 16.3464567,25.1392405 C16.4151754,25.1814346 16.4667144,25.2067511 16.5268432,25.2067511 C16.5783822,25.2067511 16.6213314,25.1983122 16.6471009,25.1729958 C16.6814603,25.1476793 16.7158196,25.1139241 16.7415891,25.0632911 L16.9821045,24.6075949 C16.7759485,24.4135021 16.5268432,24.2616034 16.2433787,24.1603376 C15.9599141,24.0506329 15.6420902,24 15.2984968,24 C14.9978525,24 14.7229778,24.0421941 14.4824624,24.1350211 C14.241947,24.2278481 14.0443808,24.3459916 13.8811739,24.5063291 C13.7179671,24.6582278 13.5977094,24.835443 13.511811,25.0295359 C13.4259127,25.2236287 13.3829635,25.4345992 13.3829635,25.6455696 C13.3829635,25.907173 13.4259127,26.1350211 13.5032212,26.3122363 C13.5805297,26.4894515 13.6921976,26.6413502 13.8210451,26.7594937 C13.9498926,26.8776371 14.1045097,26.978903 14.2677165,27.0548523 C14.4395132,27.1308017 14.6113099,27.1983122 14.7831067,27.2489451 C14.9549034,27.3080169 15.1267001,27.3586498 15.2984968,27.4092827 C15.4702935,27.4599156 15.6163207,27.5189873 15.7451682,27.5864979 C15.8740157,27.6540084 15.9856836,27.7468354 16.0629921,27.8481013 C16.1403006,27.9493671 16.1832498,28.0843882 16.1832498,28.2531646 C16.1832498,28.5485232 16.0887616,28.7763713 15.8911954,28.9451477 C15.702219,29.1139241 15.4273443,29.1983122 15.0751611,29.1983122 C14.8604152,29.1983122 14.6714388,29.1729958 14.5168218,29.1139241 C14.3622047,29.0548523 14.2333572,28.9957806 14.1216893,28.9198312 C14.0100215,28.8438819 13.9155333,28.7848101 13.8382248,28.7257384 C13.7609162,28.6666667 13.6921976,28.6413502 13.6234789,28.6413502 C13.5805297,28.6413502 13.5375805,28.649789 13.4946314,28.6751055 C13.4516822,28.7004219 13.4259127,28.7257384 13.4001432,28.7679325 L13.1166786,29.2236287 C13.2283465,29.3417722 13.357194,29.443038 13.5032212,29.5443038 C13.6492484,29.6371308 13.8038654,29.721519 13.9670723,29.7890295 C14.1302792,29.8565401 14.3020759,29.907173 14.4824624,29.9409283 C14.662849,29.9746835 14.8518253,30 15.0408017,30 C15.3672155,30 15.65068,29.9493671 15.9083751,29.8565401 C16.1574803,29.7552743 16.3722262,29.628692 16.5440229,29.4599156 C16.7158196,29.2911392 16.853257,29.0886076 16.9391553,28.8691983 C17.0336435,28.6413502 17.0765927,28.3966245 17.0765927,28.1350211 C17.0765927,27.8902954 17.0336435,27.6877637 16.956335,27.5189873 C16.8790265,27.350211 16.7673586,27.2067511 16.6385111,27.0886076 L16.6642806,27.0632911 Z" id="Path"></path>
                <rect id="Rectangle" x="18.1503221" y="24.0675105" width="1" height="5.84810127"></rect>
                <path d="M23.9055118,27.4936709 C23.8282033,27.3248945 23.7165354,27.1814346 23.5876879,27.0632911 C23.4588404,26.9451477 23.3042233,26.8523207 23.1410165,26.7763713 C22.9692198,26.7004219 22.797423,26.6329114 22.6256263,26.5738397 C22.4538296,26.5147679 22.2820329,26.4556962 22.1102362,26.4050633 C21.9384395,26.3544304 21.7924123,26.2869198 21.6635648,26.2194093 C21.5347173,26.1518987 21.4230494,26.0675105 21.3457409,25.9662447 C21.2684324,25.8649789 21.2254832,25.7468354 21.2254832,25.5949367 C21.2254832,25.4767932 21.2426628,25.3670886 21.285612,25.2742616 C21.3285612,25.1814346 21.3972799,25.0886076 21.4745884,25.0126582 C21.5604868,24.9367089 21.6635648,24.8860759 21.7924123,24.8438819 C21.9212598,24.8016878 22.067287,24.7848101 22.2304939,24.7848101 C22.4108805,24.7848101 22.5654975,24.8101266 22.694345,24.8523207 C22.8231926,24.8945148 22.9348604,24.9451477 23.0293486,24.9957806 C23.1238368,25.0464135 23.2011453,25.0970464 23.269864,25.1392405 C23.3385827,25.1814346 23.3901217,25.2067511 23.4502505,25.2067511 C23.5017895,25.2067511 23.5447387,25.1983122 23.5705082,25.1729958 C23.6048676,25.1476793 23.6392269,25.1139241 23.6649964,25.0632911 L23.9055118,24.6075949 C23.6993558,24.4135021 23.4502505,24.2616034 23.166786,24.1603376 C22.8833214,24.0506329 22.5654975,24 22.2219041,24 C21.9212598,24 21.6463851,24.0421941 21.4058697,24.1350211 C21.1653543,24.2278481 20.9677881,24.3459916 20.8045812,24.5063291 C20.6413744,24.6582278 20.5211167,24.835443 20.4352183,25.0295359 C20.34932,25.2236287 20.3063708,25.4345992 20.3063708,25.6455696 C20.3063708,25.907173 20.34932,26.1350211 20.4266285,26.3122363 C20.503937,26.4894515 20.6156049,26.6413502 20.7444524,26.7594937 C20.8732999,26.8776371 21.027917,26.978903 21.1911238,27.0548523 C21.3629205,27.1308017 21.5347173,27.1983122 21.706514,27.2489451 C21.8783107,27.3080169 22.0501074,27.3586498 22.2219041,27.4092827 C22.3937008,27.4599156 22.539728,27.5189873 22.6685755,27.5864979 C22.797423,27.6540084 22.9090909,27.7468354 22.9863994,27.8481013 C23.0637079,27.9493671 23.1066571,28.0843882 23.1066571,28.2531646 C23.1066571,28.5485232 23.0121689,28.7763713 22.8146027,28.9451477 C22.6256263,29.1139241 22.3507516,29.1983122 21.9985684,29.1983122 C21.7838225,29.1983122 21.5948461,29.1729958 21.4402291,29.1139241 C21.285612,29.0548523 21.1567645,28.9957806 21.0450966,28.9198312 C20.9334288,28.8438819 20.8389406,28.7848101 20.7616321,28.7257384 C20.6843236,28.6666667 20.6156049,28.6413502 20.5468862,28.6413502 C20.503937,28.6413502 20.4609878,28.649789 20.4180387,28.6751055 C20.3750895,28.7004219 20.34932,28.7257384 20.3235505,28.7679325 L20.0400859,29.2236287 C20.1517538,29.3417722 20.2806013,29.443038 20.4266285,29.5443038 C20.5726557,29.6371308 20.7272727,29.721519 20.8904796,29.7890295 C21.0536865,29.8565401 21.2254832,29.907173 21.4058697,29.9409283 C21.5862563,29.9746835 21.7752326,30 21.964209,30 C22.2906228,30 22.5740873,29.9493671 22.8317824,29.8565401 C23.0808876,29.7552743 23.2956335,29.628692 23.4674302,29.4599156 C23.6392269,29.2911392 23.7766643,29.0886076 23.8625626,28.8691983 C23.9570508,28.6413502 24,28.3966245 24,28.1350211 C24,27.8902954 23.9570508,27.6877637 23.8797423,27.5189873 L23.9055118,27.4936709 Z" id="Path"></path>
            </g>
        </g>
    </g>
</svg>