<svg width="100px" height="84px" viewBox="0 0 80 64" version="1.1" xmlns="http://www.w3.org/2000/svg" xmlns:xlink="http://www.w3.org/1999/xlink">
    <title>placeholder</title>
    <g id="Scratch" stroke="none" stroke-width="1" fill="none" fill-rule="evenodd">
        <g id="Group-6" transform="translate(-538, -72)">
            <g id="placeholder" transform="translate(538, 72)">
                <rect id="Rectangle" fill="#F3F3F3" x="0" y="0" width="80" height="64"></rect>
                <g id="microchip" transform="translate(16, 8)" fill="#A5A5A6" fill-rule="nonzero">
                    <path d="M33.0000014,12 L15.0000014,12 C13.3406267,12 12.0000014,13.3406239 12.0000014,15 L12.0000014,33 C12.0000014,34.6565638 13.3434391,36 15.0000014,36 L33.0000014,36 C34.6565652,36 36.0000014,34.6565638 36.0000014,33 L36.0000014,15 C36.0000014,13.3406239 34.6593776,12 33.0000014,12 Z M33.0000014,33 L15.0000014,33 L15.0000014,15 L33.0000014,15 L33.0000014,33 Z M46.5,25.5 C47.3250003,25.5 48,24.8249989 48,24 C48,23.1750011 47.3291259,22.5 46.5,22.5 L42,22.5 L42,16.5 L46.5,16.5 C47.3250003,16.5 48,15.8249989 48,15 C48,14.1750011 47.3291259,13.5 46.5,13.5 L42,13.5 L42,12 C42,8.68593693 39.3140645,6 36,6 L34.5,6 L34.5,1.5 C34.5,0.670875549 33.8250003,0 33,0 C32.1750026,0 31.5,0.670875549 31.5,1.5 L31.5,6 L25.5,6 L25.5,1.5 C25.5,0.670875549 24.8250003,0 24,0 C23.1750026,0 22.5,0.670875549 22.5,1.5 L22.5,6 L16.5,6 L16.5,1.5 C16.5,0.670875549 15.8250017,0 15,0 C14.1750011,0 13.5,0.670875549 13.5,1.5 L13.5,6 L12,6 C8.68593836,6 6,8.68593693 6,12 L6,13.5 L1.5,13.5 C0.670875549,13.5 0,14.1750011 0,15 C0,15.8249989 0.670875549,16.5 1.5,16.5 L6,16.5 L6,22.5 L1.5,22.5 C0.670875549,22.5 0,23.1749997 0,24 C0,24.8249989 0.670875549,25.5 1.5,25.5 L6,25.5 L6,31.5 L1.5,31.5 C0.670875549,31.5 0,32.1750011 0,33 C0,33.8249989 0.670875549,34.5 1.5,34.5 L6,34.5 L6,36 C6,39.3140631 8.68593836,42 12,42 L13.5,42 L13.5,46.5 C13.5,47.3249989 14.1750011,48 15,48 C15.8250017,48 16.5,47.3291245 16.5,46.5 L16.5,42 L22.5,42 L22.5,46.5 C22.5,47.3291245 23.170877,48 24,48 C24.8291259,48 25.5,47.3291245 25.5,46.5 L25.5,42 L31.5,42 L31.5,46.5 C31.5,47.3291245 32.170877,48 33,48 C33.8291259,48 34.5,47.3291245 34.5,46.5 L34.5,42 L36,42 C39.3140645,42 42,39.3140631 42,36 L42,34.5 L46.5,34.5 C47.3291259,34.5 48,33.8291245 48,33 C48,32.1708755 47.3291259,31.5 46.5,31.5 L42,31.5 L42,25.5 L46.5,25.5 Z M39.0000014,36 C39.0000014,37.6537514 37.6537528,39 36.0000014,39 L12.0000014,39 C10.3462515,39 9.00000143,37.6537514 9.00000143,36 L9.00000143,12 C9.00000143,10.3462486 10.3462515,9 12.0000014,9 L36.0000014,9 C37.6537528,9 39.0000014,10.3462486 39.0000014,12 L39.0000014,36 Z" id="Shape"></path>
                </g>
            </g>
        </g>
    </g>
</svg>