<?xml version="1.0" encoding="UTF-8"?>
<svg width="14px" height="14px" viewBox="0 0 14 14" version="1.1" xmlns="http://www.w3.org/2000/svg" xmlns:xlink="http://www.w3.org/1999/xlink">
    <title>icon / software-components</title>
    <g id="Design" stroke="none" stroke-width="1" fill="none" fill-rule="evenodd">
        <g id="Icons" transform="translate(-87, -117)" fill="black" fill-rule="nonzero">
            <g id="light-theme" transform="translate(27.2515, 117)">
                <g id="icon-/-software-components" transform="translate(59.7485, 0)">
                    <path d="M5.82640876,6.60273445 L3.38732292,4.1640625 C3.28769664,4.05479681 3.14470348,4 3.00053854,4 C2.85637341,4 2.71338043,4.05479681 2.60320556,4.16441405 L0.164471328,6.60273445 C-0.0548237759,6.82199216 -0.0548237759,7.17742205 0.164471328,7.39656246 L2.60355717,9.8352344 C2.71338043,9.94492173 2.85637341,10 3.00053854,10 C3.14423491,10 3.28793093,9.94519138 3.39751991,9.83558595 L5.83660575,7.39691401 C6.05613532,7.17812514 6.05613532,6.82187504 5.82640876,6.60273445 Z M3.00561656,9.2 L0.8,7.00105776 L2.99470135,4.8 L5.2,6.99894224 L3.00561656,9.2 Z" id="Shape"></path>
                    <path d="M13.8264088,6.60273445 L11.3873229,4.1640625 C11.2876966,4.05479681 11.1447035,4 11.0005385,4 C10.8563734,4 10.7133804,4.05479681 10.6032056,4.16441405 L8.16447133,6.60273445 C7.94517622,6.82199216 7.94517622,7.17742205 8.16447133,7.39656246 L10.6035572,9.8352344 C10.7133804,9.94492173 10.8563734,10 11.0005385,10 C11.1442349,10 11.2879309,9.94519138 11.3975199,9.83558595 L13.8366057,7.39691401 C14.0561353,7.17812514 14.0561353,6.82187504 13.8264088,6.60273445 Z M11.0056166,9.2 L8.8,7.00105776 L10.9947013,4.8 L13.2,6.99894224 L11.0056166,9.2 Z" id="Shape"></path>
                    <path d="M9.82640876,10.6027344 L7.38732292,8.1640625 C7.28769664,8.05479681 7.14470348,8 7.00053854,8 C6.85637341,8 6.71338043,8.05479681 6.60320556,8.16441405 L4.16447133,10.6027344 C3.94517622,10.8219922 3.94517622,11.177422 4.16447133,11.3965625 L6.60355717,13.8352344 C6.71338043,13.9449217 6.85637341,14 7.00053854,14 C7.14423491,14 7.28793093,13.9451914 7.39751991,13.835586 L9.83660575,11.396914 C10.0561353,11.1781251 10.0561353,10.821875 9.82640876,10.6027344 Z M7.00561656,13.2 L4.8,11.0010578 L6.99470135,8.8 L9.2,10.9989422 L7.00561656,13.2 Z" id="Shape"></path>
                    <path d="M9.82640876,2.60273445 L7.38732292,0.1640625 C7.28769664,0.0547968149 7.14470348,0 7.00053854,0 C6.85637341,0 6.71338043,0.0547968149 6.60320556,0.164414048 L4.16447133,2.60273445 C3.94517622,2.82199216 3.94517622,3.17742205 4.16447133,3.39656246 L6.60355717,5.8352344 C6.71338043,5.94492173 6.85637341,6 7.00053854,6 C7.14423491,6 7.28793093,5.94519138 7.39751991,5.83558595 L9.83660575,3.39691401 C10.0561353,3.17812514 10.0561353,2.82187504 9.82640876,2.60273445 Z M7.00561656,5.2 L4.8,3.00105776 L6.99470135,0.8 L9.2,2.99894224 L7.00561656,5.2 Z" id="Shape"></path>
                </g>
            </g>
        </g>
    </g>
</svg>